Coordinates
version=1
nRows=17
nColumns=24
inDegrees=yes

Units are S.I. units (second, meters, Newtons, ...)
Angles are in degrees.

endheader
time	pelvis_tilt	pelvis_list	pelvis_rotation	pelvis_tx	pelvis_ty	pelvis_tz	hip_flexion_r	hip_adduction_r	hip_rotation_r	knee_angle_r	ankle_angle_r	subtalar_angle_r	mtp_angle_r	hip_flexion_l	hip_adduction_l	hip_rotation_l	knee_angle_l	ankle_angle_l	subtalar_angle_l	mtp_angle_l	lumbar_extension	lumbar_bending	lumbar_rotation
     15.24000000	      2.10496853	      0.98906103	      1.71423849	      0.00566133	      0.92996975	     -0.01407471	     15.50130668	     -4.73590195	    -11.14911878	    -66.19074239	      1.77311297	     -3.34113864	      0.00000000	     -0.45908135	      5.09234365	      1.21531346	     -7.65724121	      7.26365850	      0.59966982	      0.00000000	    -11.83922146	      0.91936419	     -7.70536335
     15.25000000	      1.95475863	      0.76337824	      1.88059932	      0.00401875	      0.93034172	     -0.01438500	     16.73139501	     -4.46722078	    -11.44015290	    -64.91902541	      2.49688804	     -3.39451828	      0.00000000	     -1.13005080	      4.81508486	      1.25698789	     -7.18452208	      7.51877355	      0.89543839	      0.00000000	    -11.74811912	      1.21358990	     -7.91786983
     15.26000000	      1.85094771	      0.58306101	      2.04785538	      0.00237179	      0.93056144	     -0.01460383	     17.84241051	     -4.21836412	    -11.69160462	    -63.37182643	      3.20120509	     -3.64243331	      0.00000000	     -1.79340962	      4.57450914	      1.32096295	     -6.80538016	      7.82619072	      1.20148358	      0.00000000	    -11.72207770	      1.44890275	     -8.16399001
     15.27000000	      1.72662488	      0.43902930	      2.19882648	      0.00070744	      0.93061190	     -0.01470321	     18.87540423	     -3.94908401	    -11.84482792	    -61.53899767	      3.75484321	     -3.81638846	      0.00000000	     -2.33713346	      4.36851010	      1.39779347	     -6.60014688	      8.15875132	      1.49581544	      0.00000000	    -11.68269144	      1.62979096	     -8.38012747
     15.28000000	      1.57357912	      0.30494236	      2.32523063	     -0.00090023	      0.93067219	     -0.01472119	     19.90154332	     -3.70364890	    -11.95445631	    -59.49649033	      4.06775446	     -3.95533275	      0.00000000	     -2.86276326	      4.17496669	      1.48571192	     -6.40243960	      8.47890453	      1.72385617	      0.00000000	    -11.60741022	      1.78739717	     -8.57304465
     15.29000000	      1.43993442	      0.21680773	      2.58988738	     -0.00291678	      0.93042811	     -0.01488109	     20.83169489	     -3.51488066	    -12.11639268	    -57.21988526	      4.36812713	     -4.07098455	      0.00000000	     -3.33857402	      4.03450592	      1.88482626	     -6.28948314	      8.82498881	      1.70726099	      0.00000000	    -11.62221848	      1.90932398	     -8.91370626
     15.30000000	      1.25620218	      0.22872301	      2.54112197	     -0.00444468	      0.92983869	     -0.01465883	     21.76553330	     -3.30595909	    -11.85462939	    -54.83488506	      4.65127975	     -4.03864238	      0.00000000	     -3.88952841	      4.03520292	      2.04827219	     -6.01445249	      9.15532482	      1.52426928	      0.00000000	    -11.53262536	      1.87654616	     -8.92163562
     15.31000000	      1.04624945	      0.23677142	      2.51057647	     -0.00593437	      0.92925898	     -0.01431141	     22.57774411	     -3.05753657	    -11.49526249	    -52.13188644	      4.96496006	     -3.85436545	      0.00000000	     -4.40885922	      4.00976397	      2.22501187	     -5.74307012	      9.52799405	      1.26554102	      0.00000000	    -11.40588578	      1.83497630	     -8.97866027
     15.32000000	      0.89755387	      0.24526802	      2.55521266	     -0.00752319	      0.92864932	     -0.01407901	     23.22730246	     -2.83081010	    -11.28581183	    -49.08663513	      4.85667350	     -3.87175212	      0.00000000	     -4.96147821	      3.99478686	      2.59774805	     -5.55336875	      9.82808755	      0.99148529	      0.00000000	    -11.37615444	      1.81172541	     -9.11444944
     15.33000000	      0.64441647	      0.33958508	      2.56335916	     -0.00909792	      0.92762834	     -0.01370973	     23.91253900	     -2.66641316	    -10.86691441	    -46.00055204	      5.05268864	     -3.50069887	      0.00000000	     -5.37948074	      4.06495341	      2.93010473	     -5.39319767	      9.93959174	      0.92300565	      0.00000000	    -11.23346664	      1.66584666	     -9.17935396
     15.34000000	      0.45036208	      0.43053523	      2.64977052	     -0.01076215	      0.92658005	     -0.01332651	     24.39775583	     -2.50505968	    -10.48598574	    -42.67033049	      5.18664323	     -3.08881809	      0.00000000	     -5.80070197	      4.10992085	      3.33951617	     -5.33056432	     10.21783209	      0.69847007	      0.00000000	    -11.18000766	      1.53354306	     -9.31657768
     15.35000000	      0.25272437	      0.53753678	      2.65320622	     -0.01209282	      0.92560255	     -0.01280968	     24.74009742	     -2.32026865	     -9.98748723	    -39.08069605	      5.21511327	     -2.63793100	      0.00000000	     -6.33604690	      4.19450728	      3.68573850	     -5.08948997	     10.59355753	      0.40748062	      0.00000000	    -11.07442725	      1.37097269	     -9.37601092
     15.36000000	     -0.09220309	      0.68877294	      2.58085390	     -0.01336651	      0.92412205	     -0.01209150	     25.16940534	     -2.14999612	     -9.33244819	    -35.39463636	      5.33566875	     -2.10136678	      0.00000000	     -6.69152565	      4.31115761	      3.89164213	     -4.88572118	     10.85752155	      0.17965643	      0.00000000	    -10.79974167	      1.13010663	     -9.34687724
     15.37000000	     -0.26698593	      0.85398090	      2.51827209	     -0.01463937	      0.92273882	     -0.01132797	     25.25104634	     -2.00132445	     -8.53916089	    -31.45852684	      5.36406554	     -1.39723912	      0.00000000	     -7.21146915	      4.45034319	      4.07519207	     -4.76818466	     11.18084237	     -0.03511083	      0.00000000	    -10.74340906	      0.88603854	     -9.31320943
     15.38000000	     -0.58242475	      1.05618848	      2.46804922	     -0.01584331	      0.92119859	     -0.01048049	     25.37605517	     -1.91847147	     -7.70996052	    -27.42016535	      5.33838964	     -0.76918198	      0.00000000	     -7.55449466	      4.61472261	      4.24580186	     -4.67599206	     11.40680474	     -0.24805570	      0.00000000	    -10.50971405	      0.57886386	     -9.27832582
     15.39000000	     -0.90346264	      1.26499209	      2.43745795	     -0.01693961	      0.91952041	     -0.00969044	     25.42306712	     -1.87177052	     -7.00100389	    -23.38663616	      5.20845971	     -0.57767966	      0.00000000	     -7.92311773	      4.78378429	      4.51907516	     -4.53633852	     11.60600594	     -0.43699135	      0.00000000	    -10.25313817	      0.28151424	     -9.29442988
     15.40000000	     -1.24530472	      1.52839716	      2.41440834	     -0.01800815	      0.91764111	     -0.00887165	     25.44625459	     -1.92444925	     -6.25389654	    -19.45408288	      5.20381844	     -0.35761437	      0.00000000	     -8.20979228	      5.01594160	      4.79291301	     -4.60433163	     11.90527079	     -0.50657031	      0.00000000	     -9.97326610	     -0.07766379	     -9.30104175
